PathFileType  4	(X/Y/Z) C:\Users\antoi\Documents\MyRepositories\mobilecap\ResultsAnalysis
DataRate	CameraRate	NumFrames	NumMarkers	Units	OrigDataRate	OrigDataStartFrame	OrigNumFrames
100.0	100.0	4	51	mm	100.0	67	132
Frame#	Time	r_knee			r_shank_antsup			r_ankle			r_calc			r_5meta			r_toe			L_knee			L_shank_antsup			L_ankle			L_calc			L_5meta			L_toe			r_sh2			r_sh3			r_sh4			L_sh2			L_sh3			r_thigh1			r_thigh2			r_thigh3			r_thigh4			r_thigh5			L_thigh1			L_thigh2			L_thigh3			L_thigh4			r.ASIS			r.PSIS			L.ASIS			L.PSIS			C7			R_Shoulder			L_Shoulder			R_Sternum			L_Sternum			R_humerus			R_elbow_med			R_elbow_lat			R_forearm			R_wrist_radius			R_wrist_ulna			L_humerus			L_elbow_med			L_elbow_lat			L_forearm			L_wrist_radius			L_wrist_ulna			R_HJC			L_HJC			R_HJC_reg			L_HJC_reg			
		X1	Y1	Z1	X2	Y2	Z2	X3	Y3	Z3	X4	Y4	Z4	X5	Y5	Z5	X6	Y6	Z6	X7	Y7	Z7	X8	Y8	Z8	X9	Y9	Z9	X10	Y10	Z10	X11	Y11	Z11	X12	Y12	Z12	X13	Y13	Z13	X14	Y14	Z14	X15	Y15	Z15	X16	Y16	Z16	X17	Y17	Z17	X18	Y18	Z18	X19	Y19	Z19	X20	Y20	Z20	X21	Y21	Z21	X22	Y22	Z22	X23	Y23	Z23	X24	Y24	Z24	X25	Y25	Z25	X26	Y26	Z26	X27	Y27	Z27	X28	Y28	Z28	X29	Y29	Z29	X30	Y30	Z30	X31	Y31	Z31	X32	Y32	Z32	X33	Y33	Z33	X34	Y34	Z34	X35	Y35	Z35	X36	Y36	Z36	X37	Y37	Z37	X38	Y38	Z38	X39	Y39	Z39	X40	Y40	Z40	X41	Y41	Z41	X42	Y42	Z42	X43	Y43	Z43	X44	Y44	Z44	X45	Y45	Z45	X46	Y46	Z46	X47	Y47	Z47	X48	Y48	Z48	X49	Y49	Z49	X50	Y50	Z50	X51	Y51	Z51	

67	0.66000000	491.46217	457.08789	-54.02535	497.15914	391.30867	-63.83243	217.16781	152.47680	-111.27673	150.31878	151.28530	-161.70554	297.78181	34.57796	-84.40740	345.02358	48.97159	-137.63829	757.91844	482.79777	-325.33939	805.89131	407.16182	-327.70085	806.27506	90.14076	-270.69341	749.16250	58.12045	-215.75729	931.15006	43.08011	-291.98916	973.85194	70.10177	-239.76661	426.14991	304.05943	-83.17740	438.79842	430.29874	-32.74584	364.79811	342.04286	-38.15505	719.21034	397.61921	-348.31262	739.86143	278.09354	-334.61803	657.40676	729.90588	-97.98495	642.13096	617.64605	-96.00752	617.09035	600.49638	-36.84594	586.94666	736.95236	-12.28707	571.38685	623.85980	-13.49028	676.74124	795.24131	-364.13498	730.84088	663.54158	-362.27219	571.42067	751.84310	-366.02299	622.18728	627.37108	-345.14952	664.00591	916.53950	-63.68240	474.47597	955.12069	-146.49533	678.13526	911.06949	-300.63828	475.39743	952.59910	-244.46523	533.75386	1425.77611	-205.19114	603.13706	1395.45102	-49.24526	583.32856	1368.82510	-369.02348	645.94046	1326.37457	-192.58611	645.71915	1321.90662	-230.82352	653.81623	1178.64192	51.36939	615.89604	1069.07594	44.45316	656.17354	1090.99863	91.73523	788.59749	1029.05552	71.89893	876.34981	987.28430	31.39349	862.21331	959.65210	65.61096	516.77867	1140.40763	-440.63382	453.05096	1051.98915	-387.06388	466.85532	1054.39934	-446.88041	483.02444	915.32492	-478.97500	488.50187	804.80486	-468.10075	448.14928	810.67054	-486.17339	589.60430	836.43085	-101.58418	586.48920	842.54613	-292.12367	596.30663	847.86444	-95.49535	597.78435	843.81235	-252.12863	
68	0.67000000	514.32619	455.05001	-53.09022	518.40102	388.95855	-62.09174	228.93467	162.09866	-108.57927	162.86448	166.65726	-159.09593	299.85060	36.38698	-84.14121	347.60229	48.76247	-137.04055	772.00704	484.08164	-325.35218	818.00027	406.95374	-327.31834	808.54420	90.16132	-270.27772	750.06113	58.76817	-215.71700	932.24012	41.45430	-291.92074	975.26535	66.57465	-238.88730	443.62276	304.28589	-81.16593	461.48202	430.73739	-32.06098	384.02248	345.55066	-36.86133	731.47731	399.51217	-349.09717	748.97550	279.61608	-335.21270	674.12490	730.05333	-100.03443	661.83556	617.54213	-96.49697	637.45074	600.28057	-36.96797	604.24399	736.20406	-13.58103	591.06687	622.79002	-13.85239	691.65466	797.52012	-363.95941	746.15302	666.12862	-361.90533	586.67234	754.25830	-368.32484	637.12209	629.77263	-347.60393	679.11327	916.70528	-65.49940	489.04674	955.20610	-146.79041	692.74633	912.86602	-301.60438	489.83011	953.89708	-244.86895	547.58436	1426.58840	-206.82985	616.45304	1396.31584	-50.35330	598.13813	1369.18770	-370.35794	659.86418	1327.14622	-193.63853	659.76791	1322.58168	-231.90941	664.32725	1178.47286	50.36749	625.10208	1069.39683	42.94631	665.45965	1090.74184	90.48137	797.14020	1027.04681	71.15127	884.43888	984.13197	30.98954	869.85431	956.62902	65.14100	533.66171	1140.01081	-441.64283	469.98864	1051.37345	-388.29078	484.21749	1053.72028	-447.98575	501.27681	914.66697	-479.58578	507.37094	804.23319	-468.44783	466.96806	809.81343	-486.72772	604.74936	836.63586	-103.26077	601.06198	844.21414	-293.73239	611.69407	847.61616	-97.88925	612.94413	845.50823	-253.97146	
69	0.68000000	538.48339	453.10400	-52.03603	541.14698	386.82839	-60.43323	242.99795	172.36005	-105.83605	178.09720	183.22768	-156.23460	302.67565	39.48322	-83.75465	350.96539	49.08883	-136.33517	785.18041	485.38791	-325.50808	829.10174	406.75067	-327.12435	810.09469	90.30398	-269.96755	750.54977	59.06265	-215.73176	932.81371	40.80703	-291.96770	975.94397	64.41742	-238.25313	462.70307	304.79792	-79.28424	485.84374	431.09733	-30.97271	405.24126	348.98946	-35.23376	742.75353	401.48271	-349.97089	756.97622	281.27779	-335.90997	690.78673	730.64127	-101.88608	681.98723	617.95435	-96.85469	658.33512	600.52240	-36.92174	621.56956	735.69430	-14.68711	611.21788	622.04762	-14.06953	706.15485	799.93295	-364.09393	760.75735	668.72538	-361.94905	601.43792	756.95543	-370.60736	651.35208	632.37153	-350.08295	693.92936	917.17933	-67.47998	503.31804	955.65725	-147.06243	707.04362	915.06600	-302.72306	504.02593	955.52471	-245.25789	561.37701	1427.77274	-208.39934	629.69045	1397.60943	-51.46464	612.88162	1369.96120	-371.58347	673.72998	1328.29581	-194.59321	673.72650	1323.62345	-232.88387	674.61402	1178.71538	49.34938	633.96738	1070.24675	41.34298	674.42635	1090.90712	89.14849	805.15843	1025.00107	70.39603	891.81163	980.51629	30.63124	876.65603	953.28945	64.78245	550.74769	1140.02550	-442.65358	487.03795	1051.15931	-389.71744	501.85668	1053.39707	-449.21975	520.22133	914.35857	-480.15407	527.14629	804.05023	-468.61746	486.74075	809.23469	-487.26877	619.64418	837.16342	-105.05825	615.30242	846.28090	-295.44683	626.70309	847.80295	-100.47955	627.82503	847.57124	-255.98694	
70	0.69000000	563.81487	451.36375	-50.96956	565.30359	385.00064	-59.07268	259.30251	183.14736	-103.15195	196.13363	200.58324	-153.29949	306.53454	44.10006	-83.22428	355.33982	50.16811	-135.47615	797.06740	486.49335	-325.86098	839.01827	406.42240	-327.18837	811.07662	90.47258	-269.76547	750.75394	59.08243	-215.75853	933.03035	40.74065	-292.06751	976.15902	63.27865	-237.85578	483.38587	305.64625	-77.71896	511.77402	431.38055	-29.50496	428.35863	352.28148	-33.37195	752.83057	403.30311	-350.87295	763.82172	282.86332	-336.65300	707.35239	731.70956	-103.40554	702.38431	618.94014	-97.08264	679.52724	601.27766	-36.73386	638.75194	735.46179	-15.53292	631.68947	621.72575	-14.15476	720.20217	802.20979	-364.62549	774.36419	670.95249	-362.48964	615.55278	759.82470	-372.75156	664.54527	634.96765	-352.36028	708.33114	917.91897	-69.43528	517.25168	956.45127	-147.38198	721.03128	917.53818	-303.94216	517.96679	957.43090	-245.69889	575.10976	1429.26860	-209.87042	642.81544	1399.27648	-52.57177	627.52080	1371.12154	-372.68338	687.50360	1329.79474	-195.43341	687.58203	1325.01552	-233.73112	684.68504	1179.34921	48.34166	642.52531	1071.59328	39.67103	683.08818	1091.46670	87.76574	812.64953	1022.92436	69.65850	898.47144	976.48875	30.32950	882.61289	949.66631	64.52530	567.97701	1140.44656	-443.65490	504.18677	1051.30345	-391.30793	519.73122	1053.41803	-450.55600	539.82949	914.41553	-480.67840	547.79125	804.26363	-468.60929	507.44318	808.94395	-487.78788	634.15751	837.97994	-106.90044	629.21412	848.63980	-297.19697	641.23110	848.34247	-103.09508	642.35699	849.87320	-258.09631	
